<svg xmlns="http://www.w3.org/2000/svg" version="1.1" xmlns:xlink="http://www.w3.org/1999/xlink" width="512"
    height="512" x="0" y="0" viewBox="0 0 32 32" style="enable-background:new 0 0 512 512" xml:space="preserve"
    fill-rule="evenodd" class="">
    <g>
        <path
            d="M30 16c0 7.727-6.273 14-14 14-1.908 0-3.795-.39-5.544-1.144L7.22 29.948a1 1 0 0 1-1.32-.924l-.081-3.414A14.003 14.003 0 0 1 2 16C2 8.273 8.273 2 16 2s14 6.273 14 14zm-16.089 5.705a2.684 2.684 0 0 0 5.182 1.388l1.727.463a1 1 0 0 0 .518-1.932l-1.014-.271 1.682-6.279a6.003 6.003 0 0 0-4.243-7.348 6.003 6.003 0 0 0-7.348 4.242 874.537 874.537 0 0 0-1.644 6.289l-.956-.256a1 1 0 0 0-.518 1.932zm4.481-.87-7.689-2.06a818.965 818.965 0 0 1 1.644-6.289 4.002 4.002 0 0 1 4.899-2.829 4.002 4.002 0 0 1 2.828 4.899z"
            fill="#1ba13f" opacity="1" data-original="#000000" class=""></path>
    </g>
</svg>